<svg width="24" height="24" viewBox="0 0 24 24" fill="none" xmlns="http://www.w3.org/2000/svg">
<path fill-rule="evenodd" clip-rule="evenodd" d="M2 4C2 2.89543 2.89543 2 4 2H20C21.1046 2 22 2.89543 22 4V20C22 21.1046 21.1046 22 20 22H4C2.89543 22 2 21.1046 2 20V4ZM5 4C4.44772 4 4 4.44772 4 5V19C4 19.5523 4.44772 20 5 20H19C19.5523 20 20 19.5523 20 19V5C20 4.44772 19.5523 4 19 4H5ZM8 10C7.44772 10 7 10.4477 7 11V17C7 17.5523 7.44772 18 8 18C8.55228 18 9 17.5523 9 17V11C9 10.4477 8.55228 10 8 10ZM11 7C11 6.44771 11.4477 6 12 6C12.5523 6 13 6.44772 13 7V17C13 17.5523 12.5523 18 12 18C11.4477 18 11 17.5523 11 17V7ZM16 13C15.4477 13 15 13.4477 15 14V17C15 17.5523 15.4477 18 16 18C16.5523 18 17 17.5523 17 17V14C17 13.4477 16.5523 13 16 13Z" fill="#414141"/>
</svg>
